<?xml version="1.0" standalone="no"?><!DOCTYPE svg PUBLIC "-//W3C//DTD SVG 1.1//EN" "http://www.w3.org/Graphics/SVG/1.1/DTD/svg11.dtd"><svg t="1545968501410" class="icon" style="" viewBox="0 0 1024 1024" version="1.1" xmlns="http://www.w3.org/2000/svg" p-id="80421" xmlns:xlink="http://www.w3.org/1999/xlink" width="200" height="200"><defs><style type="text/css"></style></defs><path d="M766.627 537.133c0-22.235-4.235-46.455-12.705-72.66a6634.786 6634.786 0 0 0-25.411-77.028c-8.471-25.146-12.706-47.249-12.706-66.308v-12.705H461.692v12.705c0 9.265-1.589 18.199-4.765 26.802-3.176 8.602-8.073 16.874-14.691 24.815-6.618 7.941-12.706 14.559-18.265 19.852-5.559 5.294-12.705 11.779-21.441 19.456-2.382 2.118-4.235 3.706-5.559 4.765-21.44 19.059-40.632 33.881-57.572 44.47-5.824 3.706-14.824 8.735-27 15.088-0.794 0.265-3.772 1.655-8.934 4.169a352.842 352.842 0 0 0-14.294 7.345 640.814 640.814 0 0 0-14.095 7.941c-5.03 2.912-9.067 5.758-12.11 8.537-3.044 2.779-4.566 5.228-4.566 7.345 0 18.794 4.036 34.08 12.109 45.86 8.074 11.779 20.978 17.669 38.713 17.669 11.382 0 22.566-1.986 33.55-5.956 10.985-3.971 19.985-8.338 27-13.103a226.91 226.91 0 0 1 21.838-13.103c7.544-3.97 13.963-5.956 19.257-5.956v228.702c0 13.236 5.096 25.015 15.286 35.338 10.192 10.323 22.037 15.485 35.537 15.485 13.764 0 25.676-5.029 35.735-15.088 10.059-10.059 15.088-21.97 15.088-35.735V634.411c12.176 9.265 25.808 13.897 40.897 13.897 18.264 0 34.014-7.014 47.249-21.043 8.47 4.764 17.602 7.146 27.397 7.146 9.794 0 19.521-2.316 29.183-6.948 9.661-4.632 16.609-10.919 20.845-18.86 6.353 1.059 13.764 1.588 22.235 1.588 22.499 0 39.175-6.419 50.029-19.257 10.853-12.838 16.279-30.772 16.279-53.801z m-50.822-304.936c0-6.881-2.515-12.838-7.544-17.867-5.029-5.029-10.985-7.544-17.867-7.544-6.882 0-12.838 2.515-17.867 7.544-5.03 5.029-7.544 10.985-7.544 17.867 0 6.882 2.515 12.838 7.544 17.868 5.029 5.029 10.985 7.544 17.867 7.544 6.882-0.001 12.838-2.515 17.867-7.544 5.029-5.029 7.544-10.986 7.544-17.868zM817.45 535.545c0 37.587-10.258 68.028-30.772 91.321-20.514 23.294-49.301 34.809-86.358 34.544l-1.985-0.397c-20.117 16.146-43.676 24.22-70.676 24.22-5.823 0-11.514-0.397-17.073-1.191-14.294 7.941-30.043 12.838-47.249 14.691v67.102c0 27.794-10.059 51.683-30.176 71.668-20.117 19.985-44.072 29.977-71.866 29.977-27.265 0-50.955-10.059-71.073-30.176-20.117-20.117-30.176-43.94-30.176-71.47V617.338c-14.294 5.824-31.235 8.735-50.822 8.735-32.029 0-56.977-10.786-74.844-32.36-17.867-21.573-26.801-48.904-26.801-81.991 0-10.059 2.316-19.257 6.948-27.595 4.632-8.338 11.184-15.617 19.654-21.838s16.808-11.581 25.014-16.081c8.205-4.5 17.735-9.397 28.587-14.691 10.853-5.294 19.059-9.662 24.617-13.103 14.559-9.264 31.632-22.499 51.219-39.705 0.795-0.529 3.044-2.382 6.75-5.559 3.706-3.176 6.551-5.691 8.536-7.544 1.986-1.853 4.831-4.566 8.537-8.139 3.706-3.573 6.684-6.75 8.934-9.529 2.25-2.779 4.632-5.758 7.146-8.934 2.515-3.176 4.368-6.287 5.559-9.331 1.192-3.044 1.787-5.89 1.787-8.537v-114.35c0-14.029 4.964-26.007 14.889-35.933 9.927-9.927 21.904-14.89 35.934-14.89h254.113c14.03 0 26.007 4.963 35.934 14.89 9.926 9.926 14.889 21.904 14.889 35.933v114.351c0 15.617 7.809 45.132 23.427 88.543 18.265 50.293 27.397 92.248 27.397 125.865z" p-id="80422" fill="#f5d145"></path></svg>