<?xml version="1.0" standalone="no"?><!DOCTYPE svg PUBLIC "-//W3C//DTD SVG 1.1//EN" "http://www.w3.org/Graphics/SVG/1.1/DTD/svg11.dtd"><svg t="1545977068436" class="icon" style="" viewBox="0 0 1195 1024" version="1.1" xmlns="http://www.w3.org/2000/svg" p-id="141837" xmlns:xlink="http://www.w3.org/1999/xlink" width="233.3984375" height="200"><defs><style type="text/css"></style></defs><path d="M567.752248 0C255.403263 0 0 220.622045 0 496.143856a477.389277 477.389277 0 0 0 221.304029 393.505162 19.436563 19.436563 0 0 1-7.842824-11.59374c0 1.704962-3.750916 8.524809-7.842823 16.708625s-5.114885 9.888778-8.183817 15.344655-8.524809 13.980686-12.957709 20.459541l-5.796869 8.183816c-34.099234 53.194805-3.409923 98.887779 52.51282 78.769231l7.501832-2.727939 16.367632-5.79687 51.148851-18.072594 9.888778-3.409923c20.800533-7.160839 38.873127-12.616717 52.171828-16.708625l17.39061-4.432901h3.750915a15.003663 15.003663 0 0 1-6.137862 0 642.770563 642.770563 0 0 0 185.499834 26.938395 653.682318 653.682318 0 0 0 96.15984-7.160839h-12.275724a456.588745 456.588745 0 0 0 271.088911 3.409924h-5.79687l9.206793 2.045954 29.666334 9.206793 6.819847 2.386946 29.325341 10.22977 12.616717 4.773893c55.922744 19.777556 87.635032-25.574426 54.217782-77.746254l-2.727939-3.750915a111.845488 111.845488 0 0 1-7.501831-10.911755 68.198468 68.198468 0 0 1-4.091909-7.842824 24.551449 24.551449 0 0 1-9.888777 16.367632A335.877456 335.877456 0 0 0 1193.473193 656.751249a317.804862 317.804862 0 0 0-63.083583-188.909757l6.137863 18.413586C1129.025641 214.825175 875.668332 0 567.752248 0z m511.488511 497.507826l5.79687 8.183816a253.698302 253.698302 0 0 1 50.807859 150.718614 272.793873 272.793873 0 0 1-129.918082 225.73693 45.692974 45.692974 0 0 0-11.59374 62.060606 127.531136 127.531136 0 0 0 8.183817 15.344656 170.49617 170.49617 0 0 0 11.934731 17.049617l-2.045954-2.727939a34.099234 34.099234 0 0 1 4.091908 7.842824 18.072594 18.072594 0 0 1 3.750916-13.639694 15.685648 15.685648 0 0 1 10.911755-7.501831 28.984349 28.984349 0 0 1-8.183816-2.045954l-13.298701-3.750916-30.348319-10.570763-7.160839-2.386946c-39.214119-12.957709-52.512821-16.708625-64.788545-12.957709a404.075924 404.075924 0 0 1-238.694638-3.068931l-5.79687-2.045954h-6.137862a600.487512 600.487512 0 0 1-88.317017 6.478854 589.91675 589.91675 0 0 1-170.49617-24.892441c-14.662671-4.4329-38.191142 2.386946-99.228771 22.846487l-10.229771 3.409924-51.830835 18.413586-16.708625 6.137862-6.137862 2.386947a28.984349 28.984349 0 0 1-8.183816 2.045954 16.02664 16.02664 0 0 1 11.593739 7.842823 18.754579 18.754579 0 0 1 3.750916 14.321679 34.099234 34.099234 0 0 1 4.091908-7.842824l6.137862-8.524809c5.114885-7.501832 10.22977-15.344655 15.003663-23.528471s7.501832-12.957709 10.570763-19.095571c19.095571-37.85015 24.210456-68.198468-4.091908-86.271063a414.305694 414.305694 0 0 1-194.706627-340.992341c0-238.694639 227.441891-434.765235 511.488511-434.765234s505.350649 191.296703 511.488512 425.899434z m0 0h56.263737v-10.229771h-56.604729v8.524809zM656.069264 924.430236l3.750916 30.348319 8.183816-29.325342c-131.282051-43.306027-218.576091-150.03663-218.576091-268.701964 0-157.538462 152.082584-288.47952 342.697303-288.479521a360.769897 360.769897 0 0 1 292.230436 136.396937l44.669997-38.191143a415.669664 415.669664 0 0 0-336.559441-159.584415c-219.599068 0-399.643024 154.810523-399.643023 349.858142 0 147.990676 105.025641 276.885781 258.813187 327.352647l5.796869 2.045954h12.957709l-8.183816-60.696637h-6.137862z m0 0" fill="#bfbfbf" p-id="141838"></path><path d="M596.054612 660.161172a42.624043 42.624043 0 1 0 42.624043-42.624042 42.624043 42.624043 0 0 0-42.624043 42.624042z m0 0M766.20979 660.161172a42.624043 42.624043 0 1 0 21.141525-36.827173 42.624043 42.624043 0 0 0-21.141525 36.827173z m0 0M936.705961 660.161172a42.624043 42.624043 0 1 0 21.141525-36.827173 42.624043 42.624043 0 0 0-21.141525 36.827173z m0 0" fill="#bfbfbf" p-id="141839"></path></svg>