<?xml version="1.0" standalone="no"?><!DOCTYPE svg PUBLIC "-//W3C//DTD SVG 1.1//EN" "http://www.w3.org/Graphics/SVG/1.1/DTD/svg11.dtd"><svg t="1545977549788" class="icon" style="" viewBox="0 0 1064 1024" version="1.1" xmlns="http://www.w3.org/2000/svg" p-id="154758" xmlns:xlink="http://www.w3.org/1999/xlink" width="207.8125" height="200"><defs><style type="text/css"></style></defs><path d="M532.182109 921.6c-206.885236 0-372.338812-47.240533-372.338812-125.16383 0-50.120145 60.720097-83.409455 158.602085-104.311467 15.242085-4.170473 30.434521 5.510982 31.60126 20.802715a26.686061 26.686061 0 0 1-20.703418 33.388606c-71.742061 15.366206-114.439758 39.023709-114.439757 50.120146 0 2.730667 4.145648 6.925964 16.582594 15.266909 15.117964 9.780752 37.186715 19.462206 66.156606 27.803151 60.670448 18.0224 146.289261 27.803152 235.879951 27.803152 89.665164 0 173.819345-9.805576 235.904776-27.803152 28.870594-8.340945 50.988994-18.047224 66.131782-27.803151 10.997139-8.340945 15.142788-12.536242 15.142788-15.266909 0-12.536242-46.843345-37.608727-125.461722-52.875637a27.108073 27.108073 0 0 1-22.192872-31.030303c0.024824-0.347539 0.099297-0.620606 0.148945-0.943321a26.959127 26.959127 0 0 1 31.204073-22.29217l0.521309 0.099297c104.758303 20.777891 169.599224 55.606303 169.599224 107.066958 0.024824 77.898473-165.4784 125.139006-372.338812 125.139006z m65.262933-154.704679c-13.653333 12.561067-25.866861 22.540412-36.491636 29.66497-14.447709 9.780752-25.420024 14.10017-35.672436 14.10017-10.078642 0-21.12543-4.344242-35.647612-14.10017a323.857067 323.857067 0 0 1-36.491637-29.66497c-28.49823-26.164752-59.603006-60.397382-87.6544-96.541479C321.722182 614.002812 248.242424 504.925091 248.242424 407.763006c0-82.888145 26.462642-159.173042 74.472728-214.779345a257.973527 257.973527 0 0 1 87.902642-66.330376c35.05183-16.061285 73.628703-24.253285 114.638351-24.253285s79.63617 8.167176 114.638352 24.253285a257.973527 257.973527 0 0 1 87.902642 66.330376c48.084558 55.606303 74.472727 131.8912 74.472728 214.779345 0 97.162085-73.454933 206.165333-117.195249 262.590836-28.02657 36.144097-59.131345 70.476024-87.629576 96.541479zM525.305794 153.264873c-133.35583 0-226.595685 104.584533-226.595685 254.398836 0 57.766012 36.715055 139.338473 100.7616 223.666424 25.22143 33.214836 53.620364 65.511176 80.083006 90.732606 24.327758 23.260315 39.3216 33.338958 45.651782 36.690231 6.404655-3.351273 21.324024-13.429915 45.676606-36.690231a793.879273 793.879273 0 0 0 80.157479-90.732606c64.046545-84.303127 100.711952-165.900412 100.711951-223.666424 0.148945-149.814303-92.991612-254.398836-226.446739-254.398836z m0 364.494351a133.678545 133.678545 0 0 1-95.474036-39.818085 135.937552 135.937552 0 0 1-39.49537-96.243587c0-36.392339 14.050521-70.575321 39.49537-96.243588a133.554424 133.554424 0 0 1 95.474036-39.818085c36.094448 0 69.979539 14.149818 95.474036 39.818085a135.689309 135.689309 0 0 1 39.49537 96.243588 135.614836 135.614836 0 0 1-39.49537 96.243587 133.504776 133.504776 0 0 1-95.474036 39.818085z m0-221.332945c-46.570279 0-84.427248 38.204509-84.427249 85.171976s37.85697 85.147152 84.427249 85.147151 84.452073-38.179685 84.452073-85.147151-37.782497-85.171976-84.452073-85.171976z" p-id="154759" fill="#bfbfbf"></path></svg>