<?xml version="1.0" standalone="no"?><!DOCTYPE svg PUBLIC "-//W3C//DTD SVG 1.1//EN" "http://www.w3.org/Graphics/SVG/1.1/DTD/svg11.dtd"><svg t="1545976833784" class="icon" style="" viewBox="0 0 1024 1024" version="1.1" xmlns="http://www.w3.org/2000/svg" p-id="140238" xmlns:xlink="http://www.w3.org/1999/xlink" width="200" height="200"><defs><style type="text/css"></style></defs><path d="M524.576437 96.957092c-255.972864 0-463.521161 207.548297-463.521161 463.521161s207.548297 463.521161 463.521161 463.521161a461.499258 461.499258 0 0 0 284.380594-97.455704c0.808761-3.94271 4.549281-26.183638-11.929225-39.022719 0 0-14.254413-12.333606-39.022719-4.852566a394.877569 394.877569 0 0 1-236.96698 78.652009c-219.982998 0-398.314803-179.443852-398.314803-400.842181s178.331805-400.842182 398.314803-400.842182 398.314803 179.443852 398.314804 400.842182A401.347657 401.347657 0 0 1 879.218145 735.979395c-0.505476 6.773374-0.404381 27.902255 19.51136 36.495341 0 0 32.754821 9.907323 49.334422-23.757355v0.20219a461.903639 461.903639 0 0 0 40.033671-188.441318c0-255.972864-207.548297-463.521161-463.521161-463.521161z" p-id="140239" fill="#bfbfbf"></path><path d="M487.676715 301.16925s6.065708-28.306636 33.361392-27.295684c0 0 22.240928-2.021903 29.317587 27.295684v246.672112l114.237495 114.237494s15.164269 21.229977-5.054757 40.438051c0 0-13.142367 14.153318-35.383294 6.065708l-129.401764-128.390812s-8.08761-9.098562-7.076659-26.284734zM247.070311 95.946141s26.284733 12.131415 40.438051 0c0 0 23.251879-22.240928 5.054756-46.503759 0 0-85.930859-97.051323-210.277865-19.208074 0 0-90.985615 67.733736-59.646126 174.894571 0 0 9.098562 40.438051 38.416149 68.744687 0 0 21.229977 23.251879 46.503759 1.010951 0 0 23.251879-21.229977-1.010952-44.481856 0 0-64.700882-78.8542 10.109513-147.598887 0 0 68.744687-51.558515 130.412715 13.142367zM738.392632 41.354772s-24.262831 21.229977-9.098562 47.51471c0 0 19.208074 23.251879 45.492808 6.065707 0 0 54.591369-58.635174 127.379861-13.142366 0 0 65.711833 40.438051 31.33949 121.314153 0 0-2.021903 11.120464-14.153318 24.262831 0 0-29.317587 25.273782 0 49.536612 0 0 18.197123 18.197123 42.459953-3.032853 0 0 78.8542-74.810395 30.328539-180.960279 0 0-43.470905-105.138933-172.872669-90.985615 0 0-43.470905 7.076659-80.876102 39.4271z" p-id="140240" fill="#bfbfbf"></path></svg>