<?xml version="1.0" standalone="no"?><!DOCTYPE svg PUBLIC "-//W3C//DTD SVG 1.1//EN" "http://www.w3.org/Graphics/SVG/1.1/DTD/svg11.dtd"><svg t="1545976125445" class="icon" style="" viewBox="0 0 1152 1024" version="1.1" xmlns="http://www.w3.org/2000/svg" p-id="113370" xmlns:xlink="http://www.w3.org/1999/xlink" width="225" height="200"><defs><style type="text/css"></style></defs><path d="M576 0c-131.2 0-252.8 41.6-347.2 110.4L52.8 6.4C46.4 3.2 41.6 1.6 35.2 1.6 14.4 1.6-4.8 22.4 1.6 46.4l65.6 249.6C33.6 361.6 14.4 435.2 14.4 512 14.4 795.2 265.6 1024 576 1024s561.6-228.8 561.6-512c0-76.8-19.2-150.4-52.8-216l65.6-249.6c6.4-24-12.8-44.8-33.6-44.8-6.4 0-11.2 1.6-17.6 4.8l-176 104C828.8 41.6 707.2 0 576 0m0 64c113.6 0 220.8 33.6 310.4 99.2 11.2 8 24 12.8 36.8 12.8 11.2 0 22.4-3.2 32-9.6l115.2-67.2-48 182.4c-4.8 16-1.6 32 4.8 44.8 30.4 59.2 46.4 121.6 46.4 187.2 0 246.4-224 448-497.6 448S78.4 758.4 78.4 512c0-64 16-126.4 46.4-187.2 6.4-14.4 9.6-30.4 4.8-44.8l-48-182.4 115.2 67.2c9.6 6.4 20.8 9.6 32 9.6 12.8 0 25.6-4.8 36.8-12.8C355.2 97.6 462.4 64 576 64" p-id="113371" fill="#bfbfbf"></path><path d="M448 544c-14.4 0-27.2-9.6-30.4-22.4-1.6-4.8-3.2-9.6-6.4-12.8C400 491.2 377.6 480 352 480s-48 11.2-59.2 28.8c-3.2 3.2-4.8 8-6.4 12.8-4.8 16-22.4 25.6-40 20.8-17.6-4.8-27.2-22.4-20.8-40 3.2-9.6 8-19.2 14.4-28.8 22.4-35.2 65.6-57.6 112-57.6s89.6 22.4 112 57.6c6.4 9.6 11.2 19.2 14.4 28.8 4.8 17.6-4.8 35.2-20.8 40-3.2 1.6-6.4 1.6-9.6 1.6z" p-id="113372" fill="#bfbfbf"></path><path d="M896 544c-14.4 0-27.2-9.6-30.4-22.4-1.6-4.8-3.2-9.6-6.4-12.8C848 491.2 825.6 480 800 480s-48 11.2-59.2 28.8c-3.2 3.2-4.8 8-6.4 12.8-4.8 16-22.4 25.6-40 20.8-17.6-4.8-27.2-22.4-20.8-40 3.2-9.6 8-19.2 14.4-28.8 22.4-35.2 65.6-57.6 112-57.6s89.6 22.4 112 57.6c6.4 9.6 11.2 19.2 14.4 28.8 4.8 17.6-4.8 35.2-20.8 40-3.2 1.6-6.4 1.6-9.6 1.6z" p-id="113373" fill="#bfbfbf"></path></svg>