<?xml version="1.0" standalone="no"?><!DOCTYPE svg PUBLIC "-//W3C//DTD SVG 1.1//EN" "http://www.w3.org/Graphics/SVG/1.1/DTD/svg11.dtd"><svg t="1545966423780" class="icon" style="" viewBox="0 0 1024 1024" version="1.1" xmlns="http://www.w3.org/2000/svg" p-id="25538" xmlns:xlink="http://www.w3.org/1999/xlink" width="200" height="200"><defs><style type="text/css"></style></defs><path d="M513.8579911111112 244.92600888888887c-206.2882133333333 0-373.539271111111 169.90321777777777-373.539271111111 379.4966755555555 0 209.59004444444443 167.25219555555555 379.4932622222222 373.539271111111 379.4932622222222 206.34737777777778 0 373.57568000000003-169.90321777777777 373.57568000000003-379.4932622222222 0-209.59345777777776-167.2237511111111-379.4966755555555-373.57568000000003-379.4966755555555z m192.10922666666664 345.63527111111114l-73.65063111111111 72.94065777777777 17.375004444444443 102.99050666666666c5.84704 34.57479111111112-13.602133333333335 49.695857777777775-44.762453333333326 33.054719999999996l-91.06432000000001-48.6343111111111-91.01880888888888 48.6343111111111c-30.55388444444445 16.321422222222218-50.72440888888889 2.215253333333333-44.77269333333333-33.054719999999996l17.38638222222222-102.99050666666666-73.64721777777777-72.94065777777777c-24.731875555555554-24.480426666666666-17.749333333333333-48.30435555555555 17.11104-53.45735111111111l101.7787733333333-15.028906666666664 45.51452444444444-93.6903111111111c15.28149333333333-31.46865777777778 39.77329777777778-32.09329777777778 55.34947555555555 0l45.52931555555555 93.6903111111111 101.77535999999998 15.028906666666664c34.158364444444445 5.041493333333333 42.31281777777778 28.496782222222222 17.09624888888889 53.45735111111111zM863.0840888888889 26.14727111111108H632.1106488888889c-12.474595555555556 0-22.455182222222223 8.853048888888887-25.39178666666667 20.590364444444447l-71.1941688888889 142.6261333333333s152.4485688888889 9.33319111111111 242.5127822222222 97.41539555555555l106.34126222222221-217.9936711111111c3.1516444444444445-4.470328888888888 5.4033066666666665-9.626737777777779 5.4033066666666665-15.53294222222222 0-14.97088-11.962595555555556-27.10528-26.697955555555556-27.10528zM488.47303111111114 189.3705955555555L417.28 46.743324444444454c-2.9366044444444444-11.743004444444443-12.942222222222222-20.59150222222222-25.392924444444443-20.59150222222222H160.90225777777778c-14.736497777777776 0-26.684302222222218 12.12871111111111-26.684302222222218 27.10641777777778 0 5.906204444444444 2.2402844444444443 11.069439999999998 5.404444444444444 15.53294222222222l106.34012444444444 217.99594666666667c90.05966222222222-88.0890311111111 242.51050666666669-97.41653333333333 242.51050666666669-97.41653333333333z" fill="#ddc57b" p-id="25539"></path><path d="M140.31872000000004 624.4226844444444c0 202.89877333333334 156.74368 368.59904 353.90464 378.97329777777776l45.52248888888889-238.66140444444443-25.881031111111106-13.821724444444444-91.01880888888888 48.6343111111111c-30.55388444444445 16.321422222222218-50.72440888888889 2.215253333333333-44.77269333333333-33.054719999999996l17.38638222222222-102.99050666666666-73.64721777777777-72.94065777777777c-24.731875555555554-24.480426666666666-17.749333333333333-48.30435555555555 17.11104-53.45735111111111l101.7787733333333-15.028906666666664 45.51452444444444-93.6903111111111c15.28149333333333-31.46865777777778 39.77329777777778-32.09329777777778 55.34947555555555 0l44.768142222222224 92.12131555555555 48.670719999999996-255.1694222222222c-37.9904-13.222115555555556-78.73877333333333-20.410595555555556-121.14716444444443-20.410595555555556-206.2882133333333 0-373.539271111111 169.90321777777777-373.539271111111 379.4966755555555zM245.96252444444445 286.7871288888889c90.05966222222222-88.0890311111111 242.51050666666669-97.41653333333333 242.51050666666669-97.41653333333333L417.28 46.743324444444454c-2.9366044444444444-11.743004444444443-12.942222222222222-20.59150222222222-25.392924444444443-20.59150222222222H160.90225777777778c-14.736497777777776 0-26.684302222222218 12.12871111111111-26.684302222222218 27.10641777777778 0 5.906204444444444 2.2402844444444443 11.069439999999998 5.404444444444444 15.53294222222222l106.34012444444444 217.99594666666667zM606.7188622222222 46.73763555555553l-71.1941688888889 142.6261333333333s50.046293333333324 3.0720000000000005 109.72728888888888 22.253795555555556L680.6300444444445 26.14727111111108h-48.519395555555555c-12.473457777777776 0-22.455182222222223 8.853048888888887-25.39178666666667 20.590364444444447z" fill="#ddc57b" p-id="25540"></path></svg>