<?xml version="1.0" standalone="no"?><!DOCTYPE svg PUBLIC "-//W3C//DTD SVG 1.1//EN" "http://www.w3.org/Graphics/SVG/1.1/DTD/svg11.dtd"><svg t="1545976680634" class="icon" style="" viewBox="0 0 1084 1024" version="1.1" xmlns="http://www.w3.org/2000/svg" p-id="131886" xmlns:xlink="http://www.w3.org/1999/xlink" width="211.71875" height="200"><defs><style type="text/css"></style></defs><path d="M716.8 987.858824h-12.047059c-6.023529 0-6.023529 0-180.705882-114.447059-12.047059-6.023529-18.070588-30.117647-12.047059-42.164706 6.023529-12.047059 30.117647-18.070588 42.164706-12.047059 72.282353 42.164706 120.470588 72.282353 150.588235 90.352941L969.788235 120.470588 120.470588 554.164706l138.541177 84.329412c12.047059 6.023529 18.070588 30.117647 12.047059 42.164706-6.023529 12.047059-30.117647 18.070588-42.164706 12.047058L42.164706 578.258824l-6.02353-18.070589c0-12.047059 0-18.070588 6.02353-30.117647l6.023529-6.023529 12.047059-6.02353L1011.952941 30.117647l12.047059 6.023529c12.047059 0 18.070588 12.047059 24.094118 18.070589l6.023529 12.047059-6.023529 18.070588L752.941176 963.764706c-6.023529 18.070588-18.070588 24.094118-36.141176 24.094118z" fill="#bfbfbf" p-id="131887"></path><path d="M361.411765 933.647059c-18.070588 0-30.117647-12.047059-30.117647-30.117647v-192.752941l12.047058-12.047059L969.788235 66.258824c12.047059-12.047059 30.117647-12.047059 42.164706 0s12.047059 30.117647 0 42.164705L391.529412 734.870588V903.529412c0 18.070588-12.047059 30.117647-30.117647 30.117647z" fill="#bfbfbf" p-id="131888"></path></svg>