<?xml version="1.0" standalone="no"?><!DOCTYPE svg PUBLIC "-//W3C//DTD SVG 1.1//EN" "http://www.w3.org/Graphics/SVG/1.1/DTD/svg11.dtd"><svg t="1545968242951" class="icon" style="" viewBox="0 0 1024 1024" version="1.1" xmlns="http://www.w3.org/2000/svg" p-id="68715" xmlns:xlink="http://www.w3.org/1999/xlink" width="200" height="200"><defs><style type="text/css"></style></defs><path d="M703.349272 429.879271H311.552258c-3.095356 0-6.190712-0.844188-8.817074-2.532564-1.688376-1.031785-42.021801-26.451223-42.021801-77.008702 0-0.656591 0-1.219383 0.093798-1.875973 5.534121-48.775305 19.979115-80.197857 44.366768-96.049831 9.473665-6.190712 19.791518-9.661262 30.765961-11.255839v-0.187598c0-41.36521 9.473665-71.286984 28.0458-88.921132 8.723276-8.348081 18.290739-12.756618 27.014015-15.195383 0.093799-4.314738 1.688376-9.379866 6.003115-15.289182 3.845745-5.252725 10.317853-12.006229 19.697719-20.635706 14.538793-13.413209 28.796189-20.823303 40.239626-26.732619C471.854172 66.409453 473.542548 64.627279 473.542548 61.250527c0-0.375195 0-0.750389-0.093798-0.937987-2.438765-1.313181-9.661262-1.500779-13.976001-0.750389-4.596134 0.844188-9.379866-0.187597-13.225612-3.001557-3.751947-2.81396-6.190712-7.0349-6.753503-11.724833-0.656591-6.28451 1.313181-15.945773 8.910873-24.481451 12.100027-13.507007 34.799304-20.35431 67.441238-20.35431 43.334982 0 85.262984 21.198498 106.836677 54.121828 15.570578 23.731062 19.510122 51.964459 11.818631 81.042045 0.937987 0.281396 1.782175 0.656591 2.720162 1.031785 10.880645 4.127141 26.63882 11.818631 39.770633 25.325639 17.352753 17.821746 33.298525 48.775305 18.665933 98.113401 33.861317 7.879088 57.592379 37.707062 65.096272 68.848219 4.689933 19.697719 3.095356 39.864432-4.502335 56.935788-8.723276 19.510122-24.856646 34.517908-46.617936 43.241183-2.063571 0.750389-4.127141 1.219383-6.28451 1.219383z m-386.45049-33.767519h382.979939c35.362096-15.945773 30.390767-49.619493 27.952002-59.749748-5.815517-24.200055-26.357424-47.274526-54.215627-44.741962-5.909316 0.562792-11.724833-2.063571-15.195384-6.941101s-4.22094-11.162041-1.782174-16.602363c13.131813-30.203169 14.538793-54.590822 4.127141-72.600165C646.976276 171.651553 617.054502 164.991848 612.364569 164.053861c-1.125584 0-2.251168-0.093799-3.376752-0.375195-7.785289-1.594577-13.413209-8.535678-13.413209-16.508564 0-2.344967 0.468993-4.689933 1.40698-6.753504 10.974444-25.138042 10.130256-48.587707-2.532564-67.816433C579.253641 49.431895 547.643492 33.767519 515.939544 33.767519c-8.066685 0-14.632591 0.468993-20.072914 1.219382 5.346524 4.596134 11.349638 12.756618 11.349638 26.263626 0 24.762847-18.572135 34.424109-34.893102 42.865989-9.567464 4.971329-20.35431 10.50545-30.953559 19.791517 18.572135 4.033342 35.0807 11.818631 50.276083 18.853532 28.608592 13.413209 53.371439 24.950444 87.326555 14.257396 8.535678-2.626363 17.634149 1.688376 20.823303 10.036457 3.189155 8.348081-0.656591 17.727947-8.723275 21.386095-48.681506 22.324082-77.946689 9.567464-106.273885-2.81396-18.478337-8.066685-37.613264-16.414766-65.752863-17.446551-1.031785 0-1.969772-0.093799-3.095356-0.093799-6.659705-0.375195-19.041129-1.031785-28.889988 8.254283-9.567464 9.09847-15.382981 26.169827-17.071356 49.900888 28.0458 4.87753 51.120271 14.257397 73.538151 23.355867 38.738848 15.758175 75.414125 30.578364 138.728222 23.918659 8.535678-0.937987 16.414766 4.783732 18.29074 13.131813 1.875973 8.44188-2.907759 16.789961-11.068243 19.603921-54.403224 18.478337-111.995603 0.656591-162.740679-15.101585-41.740405-12.944215-81.135843-25.138042-103.272328-10.693048-15.007786 9.84886-24.856646 33.579921-29.171384 70.630393 0.468993 24.387652 15.664377 39.395438 22.605478 45.023358zM356.481817 643.083631c-6.941101 0-13.507007-4.314738-15.945772-11.255839l-11.349638-32.079143c-3.095356-8.817074 1.500779-18.478337 10.317852-21.573693 8.817074-3.095356 18.478337 1.500779 21.573693 10.317853l11.349638 32.079143c3.095356 8.817074-1.500779 18.478337-10.317853 21.573692-1.875973 0.562792-3.845745 0.937987-5.62792 0.937987z" fill="#8a8a8a" p-id="68716"></path><path d="M512 1024c-20.166712 0-37.519465-12.287625-44.17917-31.328753L362.391133 693.922506c-3.095356-8.817074 1.500779-18.478337 10.317853-21.573692 8.817074-3.095356 18.478337 1.500779 21.573692 10.317853l105.335899 298.74874c2.907759 8.160484 10.224054 8.723276 12.381423 8.723276 2.157369 0 9.473665-0.656591 12.381423-8.723276L691.53064 507.356966c1.40698-4.033342 0.844188-8.44188-1.688376-11.91243s-6.378309-5.534121-10.693047-5.534121H344.850783c-4.314738 0-8.254282 2.063571-10.693047 5.534121-2.532564 3.564349-3.095356 7.879088-1.688376 11.91243l5.815517 16.414766c3.095356 8.817074-1.500779 18.478337-10.317853 21.573693s-18.478337-1.500779-21.573692-10.317853l-5.815518-16.414766c-5.065128-14.351195-2.81396-30.296968 5.909316-42.678392 8.817074-12.381423 23.074471-19.791518 38.269855-19.791518h334.298433c15.195383 0 29.546579 7.410094 38.269855 19.791518 8.817074 12.381423 10.974444 28.327196 5.909315 42.678392L556.085371 992.671247c-6.565906 19.041129-23.918659 31.328753-44.085371 31.328753z" fill="#8a8a8a" p-id="68717"></path></svg>