<?xml version="1.0" standalone="no"?><!DOCTYPE svg PUBLIC "-//W3C//DTD SVG 1.1//EN" "http://www.w3.org/Graphics/SVG/1.1/DTD/svg11.dtd"><svg t="1545971738442" class="icon" style="" viewBox="0 0 1126 1024" version="1.1" xmlns="http://www.w3.org/2000/svg" p-id="54266" xmlns:xlink="http://www.w3.org/1999/xlink" width="219.921875" height="200"><defs><style type="text/css"></style></defs><path d="M537.6 1011.2a473.6 473.6 0 1 1 0-947.2 473.6 473.6 0 0 1 0 947.2z m0-76.8a396.8 396.8 0 1 0 0-793.6 396.8 396.8 0 0 0 0 793.6z" fill="#AAAAAA" p-id="54267"></path><path d="M139.5712 607.9488l30.5152 82.3296c-57.1392 70.144-77.824 122.2144-67.7376 136.6016 10.1376 14.4896 67.328 12.8 154.5728-17.92 99.1744-35.0208 222.0032-101.12 343.3984-186.112 121.344-84.992 225.4848-177.8176 292.352-259.072 58.7264-71.424 79.872-124.6208 69.6832-139.0592-8.5504-12.2368-53.6576-13.312-125.184 8.2944l-59.8528-61.0304c11.264-4.096 22.3744-7.7824 33.1264-11.1104 103.5776-32.1024 179.5584-30.5664 214.8352 19.7632 69.376 99.072-106.752 313.1392-380.928 505.1392S108.8 969.984 39.424 870.912c-38.5536-55.1424-5.7344-136.6016 75.6224-234.7008 7.7312-9.3184 15.872-18.7904 24.5248-28.3136z" fill="#AAAAAA" p-id="54268"></path><path d="M545.0752 396.8a115.2 115.2 0 1 1 0-230.4 115.2 115.2 0 0 1 0 230.4z m0-76.8a38.4 38.4 0 1 0 0-76.8 38.4 38.4 0 0 0 0 76.8zM314.6752 652.8a89.6 89.6 0 1 1 0-179.2 89.6 89.6 0 0 1 0 179.2z m0-76.8a12.8 12.8 0 1 0 0-25.6 12.8 12.8 0 0 0 0 25.6zM665.6 704a89.6 89.6 0 1 1 0-179.2 89.6 89.6 0 0 1 0 179.2z m0-76.8a12.8 12.8 0 1 0 0-25.6 12.8 12.8 0 0 0 0 25.6z" fill="#AAAAAA" p-id="54269"></path></svg>