<?xml version="1.0" standalone="no"?><!DOCTYPE svg PUBLIC "-//W3C//DTD SVG 1.1//EN" "http://www.w3.org/Graphics/SVG/1.1/DTD/svg11.dtd"><svg t="1545976465209" class="icon" style="" viewBox="0 0 1024 1024" version="1.1" xmlns="http://www.w3.org/2000/svg" p-id="123645" xmlns:xlink="http://www.w3.org/1999/xlink" width="200" height="200"><defs><style type="text/css"></style></defs><path d="M890.88 98.304h-241.152c-56.32 0-106.496 27.136-137.728 69.12-31.232-41.984-81.408-69.12-137.728-69.12H133.12c-37.888 0-69.12 30.72-69.12 69.12v637.44c0 37.888 30.72 69.12 69.12 69.12h253.44c33.792 33.28 78.848 51.712 125.952 51.712s91.648-18.432 125.952-51.712h253.44c37.888 0 69.12-30.72 69.12-69.12V167.424c-1.024-37.888-31.744-69.12-70.144-69.12z m20.992 722.432h-282.624c-10.752 0-20.48 4.608-27.648 12.8-23.04 26.624-55.808 41.984-89.6 41.984s-66.56-15.36-89.088-41.984c-6.656-8.192-16.896-12.8-27.648-12.8H112.128V148.48h254.464c59.904 0 114.176 49.152 114.176 109.056v309.248c0 19.968 11.264 36.352 31.232 36.352 19.968 0 31.232-16.384 31.232-36.352V257.536c0-59.904 54.272-109.056 114.176-109.056h254.464v672.256z" fill="#bfbfbf" p-id="123646"></path></svg>