<?xml version="1.0" standalone="no"?><!DOCTYPE svg PUBLIC "-//W3C//DTD SVG 1.1//EN" "http://www.w3.org/Graphics/SVG/1.1/DTD/svg11.dtd"><svg t="1545977393857" class="icon" style="" viewBox="0 0 1024 1024" version="1.1" xmlns="http://www.w3.org/2000/svg" p-id="151396" xmlns:xlink="http://www.w3.org/1999/xlink" width="200" height="200"><defs><style type="text/css"></style></defs><path d="M867.2256 838.0416c-17.7152 0-32.1536-14.5408-32.1536-32.4608l-0.3072-3.072c0-0.3072 0.2048-0.6144 0.2048-1.024-1.4336-89.2928-53.4528-165.4784-128.3072-201.728-12.8-7.9872-11.8784-6.9632-20.0704-11.6736-8.192-4.8128-44.032-18.5344-46.3872-47.104-2.2528-26.4192 14.336-39.7312 29.184-45.7728l5.0176-2.1504c37.7856-22.6304 70.2464-54.9888 70.2464-102.6048 0-61.2352-48.7424-121.0368-104.96-135.168-3.584-1.1264-7.5776-2.048-15.872-3.7888-16.4864-3.7888-30.6176-13.824-30.6176-30.9248l-0.3072-2.8672c0-16.4864 12.8-29.696 28.9792-30.6176l0.9216 0.1024c100.6592 7.168 180.3264 91.136 180.3264 194.7648 0 61.7472-28.9792 116.0192-73.216 151.9616-1.024 0.7168-1.9456 1.7408-1.6384 2.9696 0.3072 1.536 2.6624 2.1504 2.6624 2.1504 97.6896 46.08 165.7856 144.896 167.6288 260.5056 0.1024 0.9216 0.6144 1.7408 0.6144 2.7648l0.3072 3.072c-0.1024 18.1248-14.5408 32.6656-32.256 32.6656z m-333.4144-301.056c99.84 45.2608 169.6768 145.408 171.6224 262.656 0.1024 0.9216 0.6144 1.7408 0.6144 2.7648l0.3072 3.072c0 17.92-14.336 32.4608-32.1536 32.4608-17.7152 0-32.1536-14.5408-32.1536-32.4608l-0.3072-3.072c0-0.3072 0.1024-0.4096 0.1024-0.7168-1.6384-121.5488-97.0752-219.4432-216.4736-224.4608-3.1744 0.1024-15.4624 0.1024-18.6368 0-120.5248 5.2224-216.7808 104.7552-216.7808 227.84v0.1024h-0.6144v0.4096c0 17.92-14.4384 32.4608-32.1536 32.4608-17.8176 0-32.1536-14.5408-32.1536-32.4608l-0.3072-3.072c0-2.3552 0.9216-4.5056 1.3312-6.656 3.3792-115.8144 72.9088-214.528 171.8272-259.072-45.8752-35.9424-90.4192-83.0464-90.4192-146.2272 0-108.3392 101.376-204.5952 208.5888-204.5952 107.1104 0 193.9456 87.8592 193.9456 196.1984 0 63.2832-30.208 118.9888-76.1856 154.8288zM415.4368 251.1872c-71.2704 0-129.024 58.368-129.024 130.56 0 72.0896 57.7536 130.56 129.024 130.56 71.3728 0 129.1264-58.368 129.1264-130.56s-57.856-130.56-129.1264-130.56z" p-id="151397" fill="#bfbfbf"></path></svg>