<?xml version="1.0" standalone="no"?><!DOCTYPE svg PUBLIC "-//W3C//DTD SVG 1.1//EN" "http://www.w3.org/Graphics/SVG/1.1/DTD/svg11.dtd"><svg t="1545977819009" class="icon" style="" viewBox="0 0 1024 1024" version="1.1" xmlns="http://www.w3.org/2000/svg" p-id="160424" xmlns:xlink="http://www.w3.org/1999/xlink" width="200" height="200"><defs><style type="text/css"></style></defs><path d="M499.1 248.2c0-58.8 0.2-115.9-0.2-173.1-0.1-13.3 1.6-24.4 16.6-28.2 13.7-3.5 24.4-0.2 32.9 12 2.6 3.7 9.9 5.8 15 5.9 42 0.5 84.1 0.3 126.1 0.3H711C695.4 88 667.4 98 667.8 128.7c0.4 30.3 26.6 40.6 43.8 62.1H550.2v60c13.8 2.7 28.1 5.1 42.2 8.5 45.8 10.9 88 30 126.1 57.5 6.5 4.7 11.5 5.7 20 2.8 52.8-17.9 106.4-33.3 162.4-35.6 23.3-1 47.8 1.4 70.2 7.8 38.5 10.9 52.7 41.5 40.4 79.6-10.6 33-30.4 60.7-53.6 85.6-25.9 27.7-53.6 53.8-81.2 79.7-7.4 7-10.7 13.1-9.3 23.3 26.7 194.6-93.3 369-284.9 410-119.7 25.6-226.6-4.8-318.7-85.4-10-8.8-18.1-10.6-30.8-7.3-48.6 12.6-97.8 22.8-148.4 18.9-15.9-1.2-32.1-4.9-46.9-10.8-24.7-9.8-34.7-32-29.5-58.1 5.6-28.6 19.8-53.5 38.4-74.9 26.8-30.9 55.4-60.4 84.6-89.1 9.2-9.1 12.9-17.1 12.5-29.9-3.9-154.1 62.5-268.7 196.7-343.7 45.7-25.5 96.1-36.8 148.1-40.5 2.9-0.1 5.9-0.5 10.6-1z m0 50.6c-20.5 2.8-39.1 4.4-57.2 8C214.8 352 115.1 632 262.3 810.6c5.4 6.5 9.7 9.6 18.9 6.7 189.6-59.7 364.1-147.8 519.3-273 7.7-6.2 10.4-11.7 7-21.8C768.9 407.7 690.7 336 573.3 306.9c-7.5-1.9-15.3-2.3-24.4-3.6 0 26 0.2 49.7 0 73.5-0.2 17.2-8.1 24.6-25.4 24.4-16.7-0.3-24.2-7.5-24.3-24.1-0.3-24.8-0.1-49.5-0.1-78.3zM818 585.1C660.8 700.7 492 791 308.7 855.6c85.7 76 231.9 99.7 351.9 32.1C788.9 815.4 832 676.6 818 585.1z m-48.7-224.9c39.3 41.1 66 86.6 85.2 140.9 25.2-26.9 49.3-50.1 70.1-76 14-17.4 25.8-37.6 34.1-58.3 10.7-26.5 0-39.8-28.2-38.8-54.3 2.2-106.2 17-161.2 32.2zM148.8 704.8c-19.5 20.7-41.6 42-61 65.5-12.1 14.6-22 31.6-29.7 48.9-8.6 19.3-0.9 32.3 19.8 34.6 16.9 1.9 34.4 2 51.2-0.4 29.1-4.1 57.9-10.7 84-15.7-21.8-45.1-42.5-87.9-64.3-132.9z m0 0" p-id="160425" fill="#f7c975"></path><path d="M356.1 671.8c-50 0.2-90.3-39.3-90.5-88.8-0.3-48.9 40.6-89.2 90.4-89.1 49.6 0.1 89 39.1 89.2 88.2 0 50.5-38.7 89.6-89.1 89.7z m0 0M648.8 521.7c0 28.8-23.5 52.2-52 51.8-28.4-0.3-52.2-24.5-51.7-52.6 0.5-28 23.4-50.4 51.7-50.5 29.6-0.1 52 22 52 51.3z m0 0M602.1 851c-15.9 0.1-27.9-11.8-28-27.7-0.1-16 11.7-27.7 27.7-27.8 15.8-0.1 28.1 12 28.1 27.6 0.2 15.5-12.1 27.8-27.8 27.9z m0 0" p-id="160426" fill="#f7c975"></path></svg>